<mxfile host="app.diagrams.net" modified="2024-07-11T15:58:06.098Z" agent="Mozilla/5.0 (Windows NT 10.0; Win64; x64) AppleWebKit/537.36 (KHTML, like Gecko) Chrome/126.0.0.0 Safari/537.36" etag="tDKyxlqt280v2fGOQlk7" version="24.6.4" type="github">
  <diagram name="第 1 页" id="_z7coX3szk6YdSfjcKcq">
    <mxGraphModel dx="1221" dy="759" grid="1" gridSize="10" guides="1" tooltips="1" connect="1" arrows="1" fold="1" page="1" pageScale="1" pageWidth="827" pageHeight="1169" math="0" shadow="0">
      <root>
        <mxCell id="0" />
        <mxCell id="1" parent="0" />
        <mxCell id="OT4hJ2ttgZ_3R--rriak-3" value="ConferenceManager" style="rounded=0;whiteSpace=wrap;html=1;fillColor=#dae8fc;strokeColor=#6c8ebf;horizontal=1;verticalAlign=top;" vertex="1" parent="1">
          <mxGeometry x="500" y="380" width="350" height="380" as="geometry" />
        </mxCell>
        <mxCell id="OT4hJ2ttgZ_3R--rriak-5" value="主进程/线程" style="rounded=0;whiteSpace=wrap;html=1;fillColor=#dae8fc;strokeColor=#6c8ebf;horizontal=1;verticalAlign=top;" vertex="1" parent="1">
          <mxGeometry x="50" y="380" width="350" height="390" as="geometry" />
        </mxCell>
        <mxCell id="OT4hJ2ttgZ_3R--rriak-6" value="监听连接请求&amp;nbsp;" style="rounded=0;whiteSpace=wrap;html=1;" vertex="1" parent="1">
          <mxGeometry x="70" y="420" width="120" height="60" as="geometry" />
        </mxCell>
        <mxCell id="OT4hJ2ttgZ_3R--rriak-7" value="监听未加入会议的socket" style="rounded=0;whiteSpace=wrap;html=1;" vertex="1" parent="1">
          <mxGeometry x="210" y="420" width="120" height="60" as="geometry" />
        </mxCell>
        <mxCell id="OT4hJ2ttgZ_3R--rriak-10" style="edgeStyle=orthogonalEdgeStyle;rounded=0;orthogonalLoop=1;jettySize=auto;html=1;exitX=1;exitY=0.5;exitDx=0;exitDy=0;entryX=0;entryY=0.5;entryDx=0;entryDy=0;" edge="1" parent="1" source="OT4hJ2ttgZ_3R--rriak-8" target="OT4hJ2ttgZ_3R--rriak-9">
          <mxGeometry relative="1" as="geometry" />
        </mxCell>
        <mxCell id="OT4hJ2ttgZ_3R--rriak-8" value="创建会议数据结构&amp;nbsp; ConferenceManager" style="rounded=0;whiteSpace=wrap;html=1;" vertex="1" parent="1">
          <mxGeometry x="70" y="610" width="120" height="60" as="geometry" />
        </mxCell>
        <mxCell id="OT4hJ2ttgZ_3R--rriak-9" value="存储加入的socket" style="rounded=0;whiteSpace=wrap;html=1;" vertex="1" parent="1">
          <mxGeometry x="230" y="610" width="120" height="60" as="geometry" />
        </mxCell>
        <mxCell id="OT4hJ2ttgZ_3R--rriak-14" value="message process thread" style="rounded=0;whiteSpace=wrap;html=1;fillColor=#dae8fc;strokeColor=#6c8ebf;verticalAlign=top;align=center;" vertex="1" parent="1">
          <mxGeometry x="465" y="820" width="275" height="250" as="geometry" />
        </mxCell>
        <mxCell id="OT4hJ2ttgZ_3R--rriak-16" value="pop mes 根据执行响应的回调函数" style="rounded=0;whiteSpace=wrap;html=1;" vertex="1" parent="1">
          <mxGeometry x="490" y="990" width="120" height="60" as="geometry" />
        </mxCell>
        <mxCell id="OT4hJ2ttgZ_3R--rriak-17" value="所有的socket设置非阻塞，使用io多路复用发送" style="rounded=0;whiteSpace=wrap;html=1;fillColor=#f8cecc;strokeColor=#b85450;" vertex="1" parent="1">
          <mxGeometry x="50" y="320" width="150" height="50" as="geometry" />
        </mxCell>
        <mxCell id="OT4hJ2ttgZ_3R--rriak-18" value="io多路复用监听消息&lt;span style=&quot;background-color: initial;&quot;&gt;&amp;nbsp;&lt;/span&gt;&lt;div&gt;cotrol，txt，pic&lt;/div&gt;" style="rounded=0;whiteSpace=wrap;html=1;fillColor=#e1d5e7;strokeColor=#9673a6;" vertex="1" parent="1">
          <mxGeometry x="520" y="680" width="120" height="30" as="geometry" />
        </mxCell>
        <mxCell id="OT4hJ2ttgZ_3R--rriak-20" value="" style="edgeStyle=orthogonalEdgeStyle;rounded=0;orthogonalLoop=1;jettySize=auto;html=1;" edge="1" parent="1" source="OT4hJ2ttgZ_3R--rriak-19" target="OT4hJ2ttgZ_3R--rriak-16">
          <mxGeometry relative="1" as="geometry" />
        </mxCell>
        <mxCell id="OT4hJ2ttgZ_3R--rriak-19" value="mesg queue" style="rounded=0;whiteSpace=wrap;html=1;fillColor=#fff2cc;strokeColor=#d6b656;" vertex="1" parent="1">
          <mxGeometry x="490" y="860" width="120" height="60" as="geometry" />
        </mxCell>
        <mxCell id="OT4hJ2ttgZ_3R--rriak-21" value="thread pool&amp;nbsp;&lt;div&gt;处理所有的回调函数&lt;/div&gt;" style="rounded=0;whiteSpace=wrap;html=1;fillColor=#dae8fc;strokeColor=#6c8ebf;align=center;verticalAlign=top;" vertex="1" parent="1">
          <mxGeometry x="60" y="920" width="170" height="60" as="geometry" />
        </mxCell>
        <mxCell id="OT4hJ2ttgZ_3R--rriak-22" style="edgeStyle=orthogonalEdgeStyle;rounded=0;orthogonalLoop=1;jettySize=auto;html=1;entryX=0.274;entryY=0.995;entryDx=0;entryDy=0;entryPerimeter=0;" edge="1" parent="1" source="OT4hJ2ttgZ_3R--rriak-21" target="OT4hJ2ttgZ_3R--rriak-5">
          <mxGeometry relative="1" as="geometry" />
        </mxCell>
        <mxCell id="OT4hJ2ttgZ_3R--rriak-39" style="edgeStyle=orthogonalEdgeStyle;rounded=0;orthogonalLoop=1;jettySize=auto;html=1;entryX=0;entryY=0.5;entryDx=0;entryDy=0;" edge="1" parent="1" source="OT4hJ2ttgZ_3R--rriak-27" target="OT4hJ2ttgZ_3R--rriak-42">
          <mxGeometry relative="1" as="geometry" />
        </mxCell>
        <mxCell id="OT4hJ2ttgZ_3R--rriak-27" value="udp socket" style="rounded=0;whiteSpace=wrap;html=1;fillColor=#fff2cc;strokeColor=#d6b656;" vertex="1" parent="1">
          <mxGeometry x="530" y="470" width="90" height="35" as="geometry" />
        </mxCell>
        <mxCell id="OT4hJ2ttgZ_3R--rriak-43" style="edgeStyle=orthogonalEdgeStyle;rounded=0;orthogonalLoop=1;jettySize=auto;html=1;" edge="1" parent="1" source="OT4hJ2ttgZ_3R--rriak-28" target="OT4hJ2ttgZ_3R--rriak-38">
          <mxGeometry relative="1" as="geometry" />
        </mxCell>
        <mxCell id="OT4hJ2ttgZ_3R--rriak-28" value="client fds" style="rounded=0;whiteSpace=wrap;html=1;fillColor=#fff2cc;strokeColor=#d6b656;" vertex="1" parent="1">
          <mxGeometry x="530" y="410" width="90" height="35" as="geometry" />
        </mxCell>
        <mxCell id="OT4hJ2ttgZ_3R--rriak-29" value="udp 视频socket" style="rounded=0;whiteSpace=wrap;html=1;" vertex="1" parent="1">
          <mxGeometry x="230" y="680" width="120" height="60" as="geometry" />
        </mxCell>
        <mxCell id="OT4hJ2ttgZ_3R--rriak-31" value="" style="endArrow=classic;html=1;rounded=0;exitX=0.5;exitY=1;exitDx=0;exitDy=0;entryX=0;entryY=0.5;entryDx=0;entryDy=0;" edge="1" parent="1" source="OT4hJ2ttgZ_3R--rriak-8" target="OT4hJ2ttgZ_3R--rriak-29">
          <mxGeometry width="50" height="50" relative="1" as="geometry">
            <mxPoint x="-360" y="730" as="sourcePoint" />
            <mxPoint x="-310" y="680" as="targetPoint" />
            <Array as="points">
              <mxPoint x="130" y="710" />
            </Array>
          </mxGeometry>
        </mxCell>
        <mxCell id="OT4hJ2ttgZ_3R--rriak-32" value="视频转发" style="rounded=0;whiteSpace=wrap;html=1;fillColor=#dae8fc;strokeColor=#6c8ebf;verticalAlign=top;" vertex="1" parent="1">
          <mxGeometry x="790" y="820" width="290" height="250" as="geometry" />
        </mxCell>
        <mxCell id="OT4hJ2ttgZ_3R--rriak-36" value="监听udp端口" style="rounded=0;whiteSpace=wrap;html=1;fillColor=#e1d5e7;strokeColor=#9673a6;" vertex="1" parent="1">
          <mxGeometry x="520" y="710" width="120" height="35" as="geometry" />
        </mxCell>
        <mxCell id="OT4hJ2ttgZ_3R--rriak-38" value="create server and client map" style="rounded=0;whiteSpace=wrap;html=1;fillColor=#ffe6cc;strokeColor=#d79b00;" vertex="1" parent="1">
          <mxGeometry x="670" y="412.5" width="100" height="30" as="geometry" />
        </mxCell>
        <mxCell id="OT4hJ2ttgZ_3R--rriak-42" value="可以建立多个udp端口负载均衡" style="rounded=0;whiteSpace=wrap;html=1;fillColor=#ffe6cc;strokeColor=#d79b00;" vertex="1" parent="1">
          <mxGeometry x="670" y="472.5" width="100" height="30" as="geometry" />
        </mxCell>
        <mxCell id="OT4hJ2ttgZ_3R--rriak-45" value="" style="endArrow=classic;html=1;rounded=0;exitX=1;exitY=0.25;exitDx=0;exitDy=0;entryX=0.001;entryY=0.458;entryDx=0;entryDy=0;entryPerimeter=0;" edge="1" parent="1" source="OT4hJ2ttgZ_3R--rriak-21" target="OT4hJ2ttgZ_3R--rriak-14">
          <mxGeometry width="50" height="50" relative="1" as="geometry">
            <mxPoint x="250" y="960" as="sourcePoint" />
            <mxPoint x="300" y="910" as="targetPoint" />
          </mxGeometry>
        </mxCell>
        <mxCell id="OT4hJ2ttgZ_3R--rriak-47" value="" style="endArrow=classic;html=1;rounded=0;entryX=0.5;entryY=1;entryDx=0;entryDy=0;" edge="1" parent="1" target="OT4hJ2ttgZ_3R--rriak-32">
          <mxGeometry width="50" height="50" relative="1" as="geometry">
            <mxPoint x="150" y="980" as="sourcePoint" />
            <mxPoint x="788" y="1052" as="targetPoint" />
            <Array as="points">
              <mxPoint x="150" y="1150" />
              <mxPoint x="935" y="1150" />
            </Array>
          </mxGeometry>
        </mxCell>
        <mxCell id="OT4hJ2ttgZ_3R--rriak-48" value="根据map 转发给其他的client" style="rounded=0;whiteSpace=wrap;html=1;" vertex="1" parent="1">
          <mxGeometry x="820" y="910" width="120" height="60" as="geometry" />
        </mxCell>
        <mxCell id="OT4hJ2ttgZ_3R--rriak-50" value="" style="endArrow=classic;html=1;rounded=0;entryX=0.5;entryY=0;entryDx=0;entryDy=0;exitX=1;exitY=0.5;exitDx=0;exitDy=0;" edge="1" parent="1" source="OT4hJ2ttgZ_3R--rriak-36" target="OT4hJ2ttgZ_3R--rriak-32">
          <mxGeometry relative="1" as="geometry">
            <mxPoint x="660" y="680" as="sourcePoint" />
            <mxPoint x="760" y="680" as="targetPoint" />
            <Array as="points">
              <mxPoint x="940" y="730" />
            </Array>
          </mxGeometry>
        </mxCell>
        <mxCell id="OT4hJ2ttgZ_3R--rriak-51" value="&lt;font style=&quot;font-size: 20px;&quot;&gt;rtp协议&lt;/font&gt;" style="edgeLabel;resizable=0;html=1;;align=center;verticalAlign=middle;" connectable="0" vertex="1" parent="OT4hJ2ttgZ_3R--rriak-50">
          <mxGeometry relative="1" as="geometry" />
        </mxCell>
        <mxCell id="OT4hJ2ttgZ_3R--rriak-52" value="" style="endArrow=classic;html=1;rounded=0;exitX=0;exitY=0.5;exitDx=0;exitDy=0;entryX=0.047;entryY=-0.009;entryDx=0;entryDy=0;entryPerimeter=0;" edge="1" parent="1" source="OT4hJ2ttgZ_3R--rriak-18" target="OT4hJ2ttgZ_3R--rriak-14">
          <mxGeometry relative="1" as="geometry">
            <mxPoint x="420" y="700" as="sourcePoint" />
            <mxPoint x="520" y="700" as="targetPoint" />
            <Array as="points">
              <mxPoint x="480" y="695" />
            </Array>
          </mxGeometry>
        </mxCell>
        <mxCell id="OT4hJ2ttgZ_3R--rriak-53" value="&lt;font style=&quot;font-size: 15px;&quot;&gt;SIP协议&lt;/font&gt;" style="edgeLabel;resizable=0;html=1;;align=center;verticalAlign=middle;" connectable="0" vertex="1" parent="OT4hJ2ttgZ_3R--rriak-52">
          <mxGeometry relative="1" as="geometry" />
        </mxCell>
        <mxCell id="OT4hJ2ttgZ_3R--rriak-55" value="资源管理" style="rounded=0;whiteSpace=wrap;html=1;fillColor=#e1d5e7;strokeColor=#9673a6;" vertex="1" parent="1">
          <mxGeometry x="520" y="645" width="120" height="35" as="geometry" />
        </mxCell>
        <mxCell id="OT4hJ2ttgZ_3R--rriak-56" value="错误处理和恢复机制" style="rounded=0;whiteSpace=wrap;html=1;fillColor=#e1d5e7;strokeColor=#9673a6;verticalAlign=middle;" vertex="1" parent="1">
          <mxGeometry x="520" y="610" width="120" height="35" as="geometry" />
        </mxCell>
        <mxCell id="OT4hJ2ttgZ_3R--rriak-57" value="&lt;font style=&quot;font-size: 20px;&quot;&gt;日志系统&lt;/font&gt;" style="rounded=0;whiteSpace=wrap;html=1;fillColor=#dae8fc;strokeColor=#6c8ebf;" vertex="1" parent="1">
          <mxGeometry x="950" y="390" width="170" height="90" as="geometry" />
        </mxCell>
      </root>
    </mxGraphModel>
  </diagram>
</mxfile>
